<?xml version="1.0" standalone="no"?>
<!DOCTYPE svg PUBLIC "-//W3C//DTD SVG 20010904//EN"
 "http://www.w3.org/TR/2001/REC-SVG-20010904/DTD/svg10.dtd">
<svg version="1.0" xmlns="http://www.w3.org/2000/svg"
 width="512.000000pt" height="512.000000pt" viewBox="0 0 512.000000 512.000000"
 preserveAspectRatio="xMidYMid meet">

<g transform="translate(0.000000,512.000000) scale(0.100000,-0.100000)"
fill="#000000" stroke="none">
<path d="M394 5101 c-102 -26 -190 -101 -238 -201 -85 -180 8 -403 197 -471
l37 -13 0 -342 0 -341 -59 -7 c-77 -9 -140 -49 -178 -113 l-28 -48 0 -490 c0
-483 0 -491 22 -530 24 -46 54 -75 103 -101 30 -16 63 -19 220 -22 l185 -4 28
-67 c39 -97 135 -237 220 -323 162 -163 358 -269 583 -315 82 -17 164 -18
1074 -18 908 0 992 1 1073 18 228 46 421 150 583 314 87 88 182 227 221 324
l28 69 54 0 54 0 -6 -227 c-7 -261 -16 -315 -79 -443 -60 -121 -178 -240 -298
-298 -156 -77 -146 -76 -692 -80 l-487 -3 -19 44 c-25 57 -84 116 -147 147
-49 24 -56 25 -285 25 -229 0 -236 -1 -285 -25 -63 -31 -121 -89 -148 -149
-32 -69 -30 -179 6 -247 34 -66 102 -126 168 -147 75 -25 443 -25 519 0 66 21
142 89 166 147 l19 45 500 3 c471 4 504 5 576 25 359 100 606 393 639 756 5
56 9 174 10 263 l0 161 54 6 c89 9 151 50 192 127 18 33 19 66 19 525 l0 490
-28 48 c-38 64 -101 104 -178 113 l-59 7 0 341 0 342 38 13 c187 67 280 291
196 471 -38 79 -97 140 -172 177 -49 24 -69 27 -147 27 -77 0 -98 -3 -145 -26
-75 -37 -137 -100 -173 -177 -26 -54 -31 -77 -30 -140 0 -161 86 -279 246
-340 l27 -11 0 -340 0 -340 -53 0 -52 0 -25 62 c-40 101 -148 254 -246 348
-168 161 -343 253 -566 295 -59 11 -149 15 -339 15 l-259 0 0 59 c0 277 -204
491 -470 491 -266 0 -470 -213 -470 -491 l0 -59 -259 0 c-291 0 -361 -9 -518
-65 -102 -36 -204 -92 -293 -160 -74 -57 -196 -186 -245 -260 -44 -66 -114
-203 -115 -222 0 -9 -18 -13 -55 -13 l-55 0 0 340 0 340 27 11 c108 41 188
115 224 206 34 89 32 190 -8 274 -58 124 -165 198 -297 204 -39 3 -85 1 -102
-4z m162 -170 c114 -52 145 -203 61 -298 -39 -44 -82 -63 -142 -63 -25 0 -60
6 -78 14 -44 18 -94 77 -108 128 -31 115 65 238 186 238 22 0 59 -9 81 -19z
m4170 0 c80 -36 127 -136 105 -219 -14 -51 -64 -110 -108 -128 -18 -8 -53 -14
-78 -14 -60 0 -103 19 -142 63 -108 123 -20 317 142 317 22 0 59 -9 81 -19z
m-2063 -107 c61 -21 141 -94 174 -158 19 -37 27 -71 31 -133 l5 -83 -313 0
-313 0 5 83 c4 62 12 96 31 133 31 62 112 137 170 157 56 20 153 21 210 1z
m1017 -562 c319 -97 568 -346 661 -662 22 -71 23 -96 27 -489 3 -355 1 -425
-13 -494 -82 -403 -410 -706 -820 -756 -124 -15 -1826 -15 -1950 0 -409 50
-738 353 -820 755 -14 69 -16 141 -13 495 4 394 5 418 26 489 87 291 307 530
583 634 150 56 118 55 1224 53 l1020 -2 75 -23z m-3080 -732 c-8 -53 -6 -870
2 -912 l7 -38 -144 0 c-205 0 -185 -53 -185 497 l0 444 25 25 c24 24 27 25
162 22 l138 -3 -5 -35z m4215 15 l25 -24 0 -444 c0 -550 20 -497 -187 -497
-135 0 -145 1 -137 18 12 24 17 834 6 904 -5 32 -7 60 -4 63 3 3 66 5 139 5
129 0 135 -1 158 -25z m-2053 -2125 c45 -13 85 -58 94 -107 5 -28 2 -47 -16
-79 -36 -68 -57 -74 -282 -74 -168 0 -198 2 -227 18 -37 20 -71 73 -71 110 0
57 43 116 96 132 41 12 362 12 406 0z"/>
<path d="M1515 3842 c-72 -27 -104 -45 -154 -88 -172 -148 -200 -419 -63 -599
79 -104 191 -164 324 -173 188 -12 350 85 432 258 29 61 31 72 31 180 0 109
-2 119 -32 183 -44 93 -119 169 -211 215 -70 34 -83 37 -176 39 -79 3 -112 -1
-151 -15z m245 -163 c72 -32 106 -65 139 -130 75 -149 15 -317 -138 -387 -45
-21 -64 -24 -125 -20 -83 6 -134 29 -187 85 -61 64 -74 97 -74 193 0 98 17
140 82 202 80 77 206 101 303 57z"/>
<path d="M3335 3843 c-122 -44 -214 -127 -268 -241 -30 -63 -32 -73 -32 -183
0 -113 1 -116 38 -191 81 -165 238 -256 421 -246 96 6 171 33 241 86 105 80
164 191 173 325 12 186 -84 346 -258 430 -57 27 -77 31 -165 34 -77 3 -112 -1
-150 -14z m245 -164 c55 -25 114 -80 143 -134 17 -32 22 -57 22 -125 0 -96
-13 -129 -74 -193 -53 -56 -104 -79 -187 -85 -62 -4 -79 -1 -125 20 -109 51
-169 144 -168 258 1 76 12 112 55 173 68 95 225 136 334 86z"/>
<path d="M1969 2736 c-123 -44 -198 -147 -199 -272 0 -121 60 -218 168 -271
l57 -28 565 0 565 0 57 28 c114 56 175 161 166 287 -8 110 -61 189 -162 243
-41 22 -45 22 -611 24 -449 2 -578 0 -606 -11z m1158 -166 c40 -24 63 -67 63
-119 0 -51 -45 -106 -98 -121 -50 -13 -1014 -13 -1064 0 -53 15 -98 70 -98
121 0 52 23 95 63 119 31 19 54 20 567 20 513 0 536 -1 567 -20z"/>
<path d="M1444 1393 l-219 -158 -412 -5 -411 -5 -38 -30 c-77 -63 -74 -42 -74
-573 0 -444 1 -475 19 -510 23 -46 46 -67 94 -87 32 -13 130 -15 744 -15 448
0 721 4 745 10 45 13 103 75 117 127 15 53 15 894 0 947 -24 86 -93 136 -187
136 l-52 0 0 131 0 131 -29 29 c-16 16 -40 29 -54 29 -15 0 -104 -57 -243
-157z m189 -300 c14 -14 40 -19 120 -23 l102 -5 3 -425 c1 -234 0 -435 -3
-448 l-5 -22 -698 2 -697 3 0 445 0 445 407 3 406 2 169 120 168 120 5 -99 c4
-78 9 -104 23 -118z"/>
<path d="M643 890 c-47 -19 -57 -87 -18 -125 l24 -25 503 0 c380 1 507 4 519
13 45 34 46 92 2 127 -25 19 -42 20 -517 19 -270 0 -501 -4 -513 -9z"/>
<path d="M622 477 c-22 -23 -28 -60 -16 -92 17 -43 37 -45 546 -45 521 0 521
0 546 54 16 32 2 80 -29 96 -11 6 -218 10 -522 10 l-504 0 -21 -23z"/>
</g>
</svg>
