<?xml version="1.0" standalone="no"?>
<!DOCTYPE svg PUBLIC "-//W3C//DTD SVG 20010904//EN"
 "http://www.w3.org/TR/2001/REC-SVG-20010904/DTD/svg10.dtd">
<svg version="1.0" xmlns="http://www.w3.org/2000/svg"
 width="512.000000pt" height="512.000000pt" viewBox="0 0 512.000000 512.000000"
 preserveAspectRatio="xMidYMid meet">

<g transform="translate(0.000000,512.000000) scale(0.100000,-0.100000)"
fill="#000000" stroke="none">
<path d="M415 4835 c-51 -18 -120 -91 -134 -141 -8 -27 -11 -579 -11 -1845 l0
-1807 28 -53 c17 -34 44 -65 71 -84 l43 -30 226 -5 227 -5 5 -227 5 -226 30
-43 c19 -27 50 -54 84 -71 l53 -28 1548 0 1548 0 53 28 c42 21 61 40 87 82
l32 54 0 1273 0 1273 83 103 c101 125 159 206 227 317 29 48 88 122 135 171
131 133 129 164 -13 311 -106 110 -133 128 -187 128 -51 0 -69 -12 -163 -103
l-82 -82 0 128 c0 140 -10 180 -58 231 -56 59 -85 66 -319 66 l-212 0 -3 218
c-3 202 -5 220 -25 259 -27 51 -82 96 -132 112 -28 8 -451 11 -1572 11 -1297
-1 -1540 -3 -1574 -15z m3143 -105 c63 -39 62 -21 62 -761 l0 -671 -122 -127
c-206 -214 -237 -258 -206 -289 10 -10 -62 -86 -331 -356 l-344 -345 6 -60 7
-61 -61 -45 c-63 -46 -165 -85 -224 -85 -55 0 -61 -17 -41 -123 20 -104 12
-185 -25 -279 -37 -95 -1 -120 111 -77 79 30 183 36 271 14 88 -21 98 -14 111
77 9 71 52 164 101 221 31 35 35 37 59 26 16 -7 41 -9 65 -4 33 6 76 44 331
298 l292 291 0 -647 c0 -703 1 -691 -55 -735 l-28 -22 -1539 0 c-1698 0 -1579
-5 -1612 64 -15 31 -16 188 -16 1826 0 1979 -5 1829 63 1870 31 20 62 20 1562
20 1517 0 1530 0 1563 -20z m600 -596 c45 -31 52 -63 52 -221 l-1 -148 -67
-42 c-61 -38 -258 -193 -374 -294 l-48 -41 0 381 0 381 208 0 c172 0 211 -3
230 -16z m504 -312 c48 -49 88 -95 88 -103 0 -8 -30 -45 -68 -82 l-67 -67
-105 105 -105 105 65 65 c36 36 73 65 84 65 12 0 57 -37 108 -88z m-112 -338
c0 -18 -132 -211 -212 -311 -115 -142 -309 -353 -453 -490 l-130 -123 -177
177 c-139 139 -175 180 -168 193 5 9 80 88 167 176 250 252 495 458 674 569
l73 45 113 -112 c62 -62 113 -118 113 -124z m-356 -3051 c-35 -67 78 -63
-1604 -63 -1388 0 -1525 1 -1556 16 -59 28 -64 49 -64 279 l0 205 1290 0
c1290 0 1291 0 1332 21 22 11 54 35 70 52 58 64 58 65 58 819 0 664 1 689 18
684 29 -10 89 40 286 238 l181 181 3 -1200 c3 -1106 2 -1203 -14 -1232z m-891
1775 l-333 -333 -125 125 c-69 69 -125 129 -125 135 0 5 147 157 327 337 l328
328 130 -130 130 -130 -332 -332z m-513 -389 c-50 -63 -77 -115 -101 -189 -13
-44 -21 -55 -38 -54 -11 0 -51 1 -88 2 l-66 2 76 79 c42 43 77 84 77 91 0 27
-22 50 -48 50 -20 0 -41 -13 -72 -46 -25 -25 -61 -58 -80 -74 l-35 -28 -2 93
-2 93 34 6 c51 10 164 70 215 115 l45 40 64 -63 63 -64 -42 -53z"/>
<path d="M872 4508 c-17 -17 -17 -499 0 -516 9 -9 74 -12 229 -12 233 0 244 3
237 52 -5 40 -40 48 -215 48 l-163 0 0 60 0 60 174 0 c145 0 177 3 190 16 21
21 20 47 -2 67 -16 14 -45 17 -190 17 l-172 0 0 60 0 60 173 0 c156 0 176 2
190 18 21 23 22 46 1 66 -13 14 -48 16 -228 16 -151 0 -215 -3 -224 -12z"/>
<path d="M1452 4508 c-27 -27 -12 -60 74 -159 l86 -100 -86 -99 c-86 -98 -101
-131 -74 -158 28 -28 56 -13 129 71 39 45 77 88 84 95 9 10 28 -7 94 -83 58
-67 88 -95 104 -95 29 0 43 10 51 37 5 17 -10 41 -79 121 -47 55 -85 105 -85
110 0 6 38 56 85 111 47 56 85 105 85 109 0 4 -7 18 -16 30 -29 42 -56 29
-144 -73 -45 -52 -83 -95 -84 -95 -2 0 -40 43 -85 95 -83 96 -110 112 -139 83z"/>
<path d="M2169 4499 c-19 -12 -41 -30 -48 -40 -6 -11 -34 -114 -62 -229 -55
-230 -55 -250 0 -250 37 0 48 14 64 86 l14 59 115 3 116 3 15 -67 c16 -69 27
-84 62 -84 28 0 45 19 45 49 -1 54 -97 421 -116 443 -45 50 -143 63 -205 27z
m127 -90 c8 -13 44 -148 44 -166 0 -10 -24 -13 -89 -13 l-88 0 19 82 c10 45
24 88 30 95 13 16 74 17 84 2z"/>
<path d="M2602 4508 c-17 -17 -17 -499 0 -516 19 -19 66 -15 78 7 6 11 10 91
10 188 l0 167 73 -72 c48 -48 80 -72 96 -72 15 0 48 24 97 72 l74 71 0 -174
c0 -123 4 -179 12 -187 19 -19 66 -15 78 7 6 12 10 112 10 255 0 200 -2 237
-16 250 -31 32 -56 18 -156 -81 l-98 -97 -98 97 c-100 98 -131 114 -160 85z"/>
<path d="M740 3780 c-23 -23 -24 -33 -10 -61 11 -19 35 -19 1260 -19 l1249 0
15 22 c20 29 20 34 -4 58 -20 20 -33 20 -1255 20 -1222 0 -1235 0 -1255 -20z"/>
<path d="M737 3442 c-14 -16 -17 -45 -17 -190 0 -227 -15 -212 210 -212 225 0
210 -15 210 210 0 225 15 210 -213 210 -156 0 -176 -2 -190 -18z m301 -189
l-3 -108 -107 -3 -108 -3 0 111 0 110 110 0 111 0 -3 -107z"/>
<path d="M1317 3432 c-21 -23 -22 -46 -1 -66 14 -14 115 -16 969 -16 l954 0
15 22 c20 29 20 34 -4 58 -20 20 -33 20 -968 20 -907 0 -950 -1 -965 -18z"/>
<path d="M1310 3131 c-16 -30 -12 -48 12 -65 20 -14 91 -16 579 -16 532 0 558
1 580 19 20 16 22 23 14 47 l-10 29 -582 3 c-568 2 -582 2 -593 -17z"/>
<path d="M730 2841 c-6 -11 -10 -92 -10 -190 0 -141 3 -172 16 -185 13 -13 45
-16 194 -16 226 0 210 -17 210 212 0 138 -3 169 -16 182 -13 13 -45 16 -199
16 -172 0 -185 -1 -195 -19z m310 -186 l0 -105 -110 0 -110 0 0 105 0 105 110
0 110 0 0 -105z"/>
<path d="M1310 2831 c-16 -30 -12 -48 12 -65 20 -14 115 -16 828 -16 713 0
808 2 828 16 24 17 29 53 10 72 -9 9 -209 12 -840 12 -808 0 -828 0 -838 -19z"/>
<path d="M1317 2542 c-21 -23 -22 -46 -1 -66 14 -14 80 -16 584 -16 504 0 570
2 584 16 21 21 20 47 -2 67 -17 15 -72 17 -584 17 -535 0 -566 -1 -581 -18z"/>
<path d="M737 2252 c-14 -16 -17 -45 -17 -190 0 -229 -15 -214 216 -210 160 3
177 5 190 22 21 30 20 343 -2 374 -15 21 -21 22 -193 22 -160 0 -180 -2 -194
-18z m301 -189 l-3 -108 -107 -3 -108 -3 0 111 0 110 110 0 111 0 -3 -107z"/>
<path d="M1317 2242 c-21 -23 -22 -46 -1 -66 14 -14 75 -16 528 -16 385 0 515
3 524 12 19 19 15 66 -7 78 -13 6 -195 10 -524 10 -475 0 -505 -1 -520 -18z"/>
<path d="M1310 1941 c-16 -30 -12 -48 12 -65 19 -14 73 -16 385 -16 350 0 364
1 383 20 23 23 24 33 10 61 -10 18 -25 19 -395 19 -370 0 -385 -1 -395 -19z"/>
<path d="M730 1651 c-6 -11 -10 -91 -10 -189 0 -151 2 -171 18 -185 16 -15 45
-17 195 -17 223 0 207 -16 207 208 0 93 -4 172 -10 183 -10 18 -23 19 -200 19
-177 0 -190 -1 -200 -19z m310 -186 l0 -105 -110 0 -110 0 0 105 0 105 110 0
110 0 0 -105z"/>
<path d="M1310 1640 c-15 -28 -3 -59 27 -71 13 -5 177 -9 368 -9 191 0 355 4
368 9 30 12 42 43 27 71 -10 20 -19 20 -395 20 -376 0 -385 0 -395 -20z"/>
<path d="M1317 1352 c-22 -24 -21 -45 1 -65 17 -15 58 -17 389 -17 346 0 371
1 386 18 22 24 21 45 -1 65 -17 15 -58 17 -389 17 -346 0 -371 -1 -386 -18z"/>
</g>
</svg>
